<svg width="52" height="52" viewBox="0 0 52 52" fill="none" xmlns="http://www.w3.org/2000/svg">
<path fill-rule="evenodd" clip-rule="evenodd" d="M25.75 51.6268C39.8204 51.6268 51.2269 40.2204 51.2269 26.15C51.2269 12.0795 39.8204 0.673157 25.75 0.673157C11.6796 0.673157 0.273193 12.0795 0.273193 26.15C0.273193 40.2204 11.6796 51.6268 25.75 51.6268ZM23.8189 37.7304L29.1975 46.695C34.9682 45.7336 39.9362 42.4001 43.0655 37.7304H23.8189ZM13.8838 30.1751L23.9182 46.8995C17.5933 46.3483 12.0781 42.9703 8.64324 38.0359L13.8838 30.1751ZM15.6322 19.2018H6.10822C5.33949 21.3749 4.92116 23.7135 4.92116 26.15C4.92116 28.6812 5.37264 31.1069 6.19945 33.3509L15.6322 19.2018ZM45.3918 33.0982H35.7423L45.0645 18.3382C46.0412 20.7505 46.579 23.3874 46.579 26.15C46.579 28.5865 46.1607 30.9251 45.3918 33.0982ZM27.6812 14.5696H8.43451C11.5637 9.89994 16.5318 6.56632 22.3026 5.60513L27.6812 14.5696ZM27.5818 5.40057L37.4108 21.7821L42.4853 13.7473C39.0316 9.09464 33.6835 5.93218 27.5818 5.40057ZM16.9009 26.15L21.2434 19.2018H30.2567L34.5993 26.15L30.2567 33.0982H21.2434L16.9009 26.15Z" fill="#0F0F0F"/>
</svg>
