<svg width="64" height="64" viewBox="0 0 64 64" fill="none" xmlns="http://www.w3.org/2000/svg">
<path d="M44.4453 37.672L46.2213 39.6613C45.9627 39.8907 39.784 45.3333 32 45.3333C24.216 45.3333 18.0373 39.8907 17.7787 39.6613L19.5547 37.672C19.6107 37.7227 25.2533 42.6667 32 42.6667C38.7467 42.6667 44.3893 37.7227 44.4453 37.672ZM64 32V64H32C14.3547 64 0 49.6453 0 32C0 14.3547 14.3547 0 32 0C49.6453 0 64 14.3547 64 32ZM61.3333 32C61.3333 15.8267 48.1733 2.66667 32 2.66667C15.8267 2.66667 2.66667 15.8267 2.66667 32C2.66667 48.1733 15.8267 61.3333 32 61.3333H61.3333V32ZM21.3333 29.3333C22.8053 29.3333 24 28.1387 24 26.6667C24 25.1947 22.8053 24 21.3333 24C19.8613 24 18.6667 25.1947 18.6667 26.6667C18.6667 28.1387 19.8613 29.3333 21.3333 29.3333ZM42.6667 29.3333C44.1387 29.3333 45.3333 28.1387 45.3333 26.6667C45.3333 25.1947 44.1387 24 42.6667 24C41.1947 24 40 25.1947 40 26.6667C40 28.1387 41.1947 29.3333 42.6667 29.3333Z" fill="#4B4948"/>
</svg>
