<svg width="28" height="23" viewBox="0 0 28 23" fill="none" xmlns="http://www.w3.org/2000/svg">
<g clip-path="url(#clip0_191_210)">
<path d="M23 21.875H5.5C4.17435 21.8736 2.9034 21.3464 1.96603 20.409C1.02865 19.4716 0.501413 18.2007 0.5 16.875V5.625C0.501413 4.29935 1.02865 3.0284 1.96603 2.09103C2.9034 1.15365 4.17435 0.626413 5.5 0.625H23C24.3256 0.626413 25.5966 1.15365 26.534 2.09103C27.4713 3.0284 27.9986 4.29935 28 5.625V16.875C27.9986 18.2007 27.4713 19.4716 26.534 20.409C25.5966 21.3464 24.3256 21.8736 23 21.875ZM5.5 3.125C4.83719 3.12576 4.20175 3.38939 3.73307 3.85807C3.26439 4.32675 3.00076 4.96219 3 5.625V16.875C3.00076 17.5378 3.26439 18.1733 3.73307 18.6419C4.20175 19.1106 4.83719 19.3742 5.5 19.375H23C23.6628 19.3742 24.2983 19.1106 24.7669 18.6419C25.2356 18.1733 25.4992 17.5378 25.5 16.875V5.625C25.4992 4.96219 25.2356 4.32675 24.7669 3.85807C24.2983 3.38939 23.6628 3.12576 23 3.125H5.5Z" fill="black"/>
<path d="M14.25 13.0419C12.8597 13.0425 11.5089 12.5787 10.4121 11.7242L2.23213 5.36189C1.97038 5.15825 1.80024 4.85897 1.75915 4.52989C1.71806 4.20081 1.80938 3.86888 2.01302 3.60713C2.21666 3.34538 2.51594 3.17524 2.84502 3.13415C3.1741 3.09306 3.50603 3.18438 3.76778 3.38802L11.9477 9.75032C12.6055 10.2632 13.4158 10.5418 14.25 10.5418C15.0841 10.5418 15.8944 10.2632 16.5522 9.75032L24.7321 3.38802C24.9939 3.18438 25.3258 3.09306 25.6549 3.13415C25.984 3.17524 26.2833 3.34538 26.4869 3.60713C26.6905 3.86888 26.7819 4.20081 26.7408 4.52989C26.6997 4.85897 26.5295 5.15825 26.2678 5.36189L18.0878 11.7242C16.9909 12.5784 15.6403 13.0421 14.25 13.0419Z" fill="black"/>
</g>
<defs>
<clipPath id="clip0_191_210">
<rect width="27.5" height="22.5" fill="white" transform="translate(0.5)"/>
</clipPath>
</defs>
</svg>
