<svg width="12" height="13" viewBox="0 0 12 13" fill="none" xmlns="http://www.w3.org/2000/svg">
<path d="M2.29103 4.48486H4.11741V5.63755H2.29103C1.74792 5.63755 1.32655 5.93264 1.32655 6.18661V11.298C1.32655 11.552 1.74792 11.8471 2.29103 11.8471H9.1945C9.73761 11.8471 10.159 11.552 10.159 11.298V6.1868C10.159 5.93283 9.73761 5.63774 9.1945 5.63774H7.36848V4.48506H9.1945C10.343 4.48506 11.2427 5.23257 11.2427 6.1868V11.2982C11.2427 12.2526 10.343 12.9999 9.1945 12.9999H2.29085C1.1425 12.9999 0.242676 12.2524 0.242676 11.2982V6.1868C0.242856 5.23238 1.1425 4.48486 2.29103 4.48486Z" fill="#3782FA"/>
<path d="M7.34616 2.87307C7.20745 2.87307 7.06891 2.81678 6.96307 2.7042L6.28468 1.98262V4.48548V5.63817V7.84633C6.28468 8.16466 6.04212 8.42267 5.74284 8.42267C5.44356 8.42267 5.20099 8.16466 5.20099 7.84633V5.63817V4.48548V1.94362L4.48594 2.7042C4.3801 2.81678 4.24138 2.87307 4.10285 2.87307C3.96432 2.87307 3.82561 2.81678 3.71977 2.7042C3.50809 2.47923 3.50809 2.11422 3.71977 1.88925L5.33754 0.168484C5.44338 0.0559052 5.58191 0 5.72044 0C5.72189 0 5.72315 0 5.7246 0C5.72604 0 5.7273 0 5.72875 0C5.86728 0 6.00581 0.0559052 6.11165 0.168484L7.72942 1.88925C7.9411 2.11422 7.9411 2.47923 7.72942 2.7042C7.6234 2.81678 7.48487 2.87307 7.34616 2.87307Z" fill="#3782FA"/>
</svg>
