<svg width="49" height="37" viewBox="0 0 49 37" fill="none" xmlns="http://www.w3.org/2000/svg">
<g clip-path="url(#clip0_209_456)">
<path d="M48.5625 1.90625C48.5625 2.39524 48.3814 2.86421 48.0591 3.20998C47.7368 3.55575 47.2996 3.75 46.8438 3.75H2.15625C1.70041 3.75 1.26324 3.55575 0.94091 3.20998C0.618582 2.86421 0.4375 2.39524 0.4375 1.90625C0.4375 1.41726 0.618582 0.948292 0.94091 0.602522C1.26324 0.256752 1.70041 0.0625 2.15625 0.0625H46.8438C47.2996 0.0625 47.7368 0.256752 48.0591 0.602522C48.3814 0.948292 48.5625 1.41726 48.5625 1.90625ZM39.9688 16.6562H2.15625C1.70041 16.6562 1.26324 16.8505 0.94091 17.1963C0.618582 17.542 0.4375 18.011 0.4375 18.5C0.4375 18.989 0.618582 19.458 0.94091 19.8037C1.26324 20.1495 1.70041 20.3438 2.15625 20.3438H39.9688C40.4246 20.3438 40.8618 20.1495 41.1841 19.8037C41.5064 19.458 41.6875 18.989 41.6875 18.5C41.6875 18.011 41.5064 17.542 41.1841 17.1963C40.8618 16.8505 40.4246 16.6562 39.9688 16.6562ZM24.5 33.25H2.15625C1.70041 33.25 1.26324 33.4443 0.94091 33.79C0.618582 34.1358 0.4375 34.6048 0.4375 35.0938C0.4375 35.5827 0.618582 36.0517 0.94091 36.3975C1.26324 36.7432 1.70041 36.9375 2.15625 36.9375H24.5C24.9558 36.9375 25.393 36.7432 25.7153 36.3975C26.0377 36.0517 26.2188 35.5827 26.2188 35.0938C26.2188 34.6048 26.0377 34.1358 25.7153 33.79C25.393 33.4443 24.9558 33.25 24.5 33.25Z" fill="black"/>
</g>
<defs>
<clipPath id="clip0_209_456">
<rect width="49" height="37" fill="white"/>
</clipPath>
</defs>
</svg>
