<svg width="28" height="22" viewBox="0 0 28 22" fill="none" xmlns="http://www.w3.org/2000/svg">
<path d="M23 21.875H5.5C4.17435 21.8736 2.9034 21.3464 1.96603 20.409C1.02865 19.4716 0.501413 18.2007 0.5 16.875V5.625C0.501413 4.29935 1.02865 3.0284 1.96603 2.09103C2.9034 1.15365 4.17435 0.626413 5.5 0.625H23C24.3256 0.626413 25.5966 1.15365 26.534 2.09103C27.4713 3.0284 27.9986 4.29935 28 5.625V16.875C27.9986 18.2007 27.4713 19.4716 26.534 20.409C25.5966 21.3464 24.3256 21.8736 23 21.875ZM5.5 3.125C4.83719 3.12576 4.20175 3.38939 3.73307 3.85807C3.26439 4.32675 3.00076 4.96219 3 5.625V16.875C3.00076 17.5378 3.26439 18.1733 3.73307 18.6419C4.20175 19.1106 4.83719 19.3742 5.5 19.375H23C23.6628 19.3742 24.2983 19.1106 24.7669 18.6419C25.2356 18.1733 25.4992 17.5378 25.5 16.875V5.625C25.4992 4.96219 25.2356 4.32675 24.7669 3.85807C24.2983 3.38939 23.6628 3.12576 23 3.125H5.5Z" fill="black"/>
</svg>
