<svg width="23" height="23" viewBox="0 0 23 23" fill="none" xmlns="http://www.w3.org/2000/svg">
<g clip-path="url(#clip0_191_169)">
<path d="M22.1024 14.7507C22.0964 14.7446 22.0907 14.7386 22.0847 14.7326C22.0821 14.73 22.0789 14.7269 22.0758 14.724L19.9698 12.618C19.3779 12.0258 18.5908 11.6999 17.7536 11.6999C16.9215 11.6999 16.1385 12.0221 15.5478 12.6074C15.5435 12.6114 15.5395 12.6157 15.5352 12.6197L14.4159 13.7393L9.26139 8.58454L10.3804 7.46528C10.3847 7.46127 10.3887 7.45696 10.3927 7.45295C11.6044 6.23011 11.6012 4.24952 10.3824 3.0307L8.27956 0.927601C8.27554 0.923585 8.27181 0.919855 8.26808 0.916125C7.67617 0.325364 6.88972 0 6.05364 0C5.22014 0 4.43628 0.323355 3.84523 0.910099C3.83719 0.918133 3.82916 0.926167 3.82141 0.934487L2.85564 1.89996C2.34751 2.40809 1.95759 2.79801 1.94238 2.8135C0.450977 4.30461 0.102371 6.68171 0.960832 9.50698C1.74699 12.0947 3.47682 14.8167 5.83128 17.1714C9.11822 20.4583 13.1437 22.5 16.3362 22.5C17.9151 22.5 19.2479 22.0022 20.185 21.0648C20.2045 21.0456 20.7436 20.5065 21.3837 19.8664L22.0847 19.1655C22.0858 19.1643 22.0869 19.1632 22.0884 19.1617C23.2926 17.9535 23.3041 15.9942 22.1211 14.7713C22.1151 14.7642 22.1085 14.757 22.1024 14.7507ZM20.5344 17.5992C20.5278 17.6058 20.5212 17.6124 20.5146 17.6193L19.8257 18.3081C19.1965 18.9374 18.6652 19.4687 18.631 19.5026C18.1042 20.0294 17.3321 20.2965 16.3362 20.2965C13.7462 20.2965 10.2346 18.4582 7.38953 15.6134C5.28613 13.51 3.75198 11.114 3.06911 8.8663C2.46716 6.88571 2.62439 5.24742 3.50121 4.3706L4.41361 3.45821L5.39459 2.47724C5.39832 2.47351 5.40176 2.47006 5.4052 2.46634C5.57994 2.29677 5.80947 2.20352 6.05364 2.20352C6.29896 2.20352 6.52992 2.29791 6.70523 2.46949C6.70753 2.47207 6.71011 2.47466 6.71298 2.47724L8.82413 4.58866C9.18708 4.95161 9.18708 5.54208 8.82413 5.90503C8.82355 5.9056 8.82298 5.90646 8.82212 5.90704V5.90733L6.92386 7.80557C6.49377 8.23594 6.49377 8.93344 6.92386 9.36381L13.6369 16.0765C13.8435 16.2834 14.1238 16.3993 14.4159 16.3993C14.7083 16.3993 14.9886 16.2831 15.1952 16.0765L17.0814 14.1897C17.0882 14.1834 17.0948 14.1765 17.1014 14.1699C17.2768 13.9981 17.508 13.9034 17.7536 13.9034C18.0021 13.9034 18.2356 14.0004 18.4115 14.176L20.5172 16.2814L20.5218 16.2862C20.5241 16.2885 20.5264 16.2908 20.5284 16.2931C20.8865 16.6532 20.8882 17.2365 20.5344 17.5992Z" fill="black"/>
</g>
<defs>
<clipPath id="clip0_191_169">
<rect width="22.5" height="22.5" fill="white" transform="translate(0.5)"/>
</clipPath>
</defs>
</svg>
